<svg height="50pt" preserveAspectRatio="xMidYMid meet" viewBox="0 0 199 50" width="199pt" xmlns="http://www.w3.org/2000/svg"><g transform="matrix(.1 0 0 -.1 0 50)"><path d="m190 491c-115-35-184-126-184-241 0-94 48-176 127-217 41-21 47-6 9 23-27 22-32 32-32 69 0 26-6 47-15 55-18 15-20 54-2 68 7 6 14 26 15 44 5 66 76 128 147 128s142-62 147-128c1-18 8-38 15-44 18-14 16-53-2-68-9-8-15-29-15-55 0-37-5-47-32-69-42-33-30-45 17-16 66 41 115 130 115 209 0 158-164 286-310 242z"/><path d="m203 375c-18-8-33-18-33-24 0-11 54-31 85-31s85 20 85 31c0 12-62 39-87 39-10-1-33-7-50-15z"/><path d="m718 323c-15-4-18-17-18-89v-84h35 36l-3 87c-3 91-7 98-50 86z"/><path d="m835 318c-33-18-45-40-45-83 0-59 32-87 91-83 40 3 44 6 47 31s1 27-30 25c-32-3-33-1-33 32s2 35 31 32c24-2 33 2 37 17 2 10 0 24-6 30-14 14-66 14-92-1z"/><path d="m954 317c-3-8-4-47-2-88l3-74h65c60 0 65 2 68 23 3 19-1 22-32 22-20 0-36 5-36 10 0 6 14 10 30 10 23 0 30 4 30 20s-7 20-30 20c-16 0-30 5-30 10 0 6 13 10 29 10 28 0 47 22 35 41-9 15-124 11-130-4z"/><path d="m1155 320c-33-13-46-36-47-78-1-72 28-97 103-90 29 2 34 7 34 28 0 22-4 25-32 22-24-2-33 1-38 17-9 31 10 56 42 56 19 0 29 6 31 19 7 32-44 47-93 26z"/><path d="m1278 324c-5-4-8-45-8-91v-84l32 3c25 2 34 9 39 28l6 25 8-27c6-23 13-28 39-28 43 0 48 7 30 42-11 22-13 33-5 41 13 13 14 57 2 76-10 16-130 29-143 15zm82-54c0-11-4-20-10-20-5 0-10 9-10 20s5 20 10 20c6 0 10-9 10-20z"/><path d="m1457 323c-4-3-7-44-7-90v-83h65c63 0 65 1 65 25 0 21-5 25-30 25-16 0-30 5-30 10 0 6 11 10 25 10 18 0 25 5 25 20s-7 20-25 20c-14 0-25 5-25 10 0 6 14 10 30 10 25 0 30 4 30 25 0 24-3 25-58 25-32 0-62-3-65-7z"/><path d="m1659 324c-18-5-64-138-55-160 8-20 53-18 65 3 9 17 10 17 28 0 23-20 73-23 73-4 0 6-10 46-23 87-20 66-26 75-47 77-14 0-32-1-41-3zm28-91c-3-10-5-4-5 12 0 17 2 24 5 18 2-7 2-21 0-30z"/><path d="m1803 323c-9-3-13-31-13-89v-84h29c25 0 30 5 34 28 4 26 4 26 12 5 4-13 14-23 21-23 8 0 19 10 24 23 8 21 9 21 9-6 1-25 4-28 32-25l31 3 1 83c2 77 1 83-20 88-32 8-59-11-68-48l-7-33-11 35c-14 47-35 59-74 43z"/><path d="m146 313c-3-4-6-17-6-30 0-23 1-23 115-23s115 0 115 23c0 34-9 38-41 22-36-19-112-19-148 0-16 8-31 11-35 8z"/><path d="m117 224c-16-17 11-24 89-24h84v-35c0-19 5-35 10-35 6 0 10 15 10 34 0 33 2 35 40 38 22 2 40 8 40 13 0 11-262 20-273 9z"/><path d="m140 136c0-55 19-66 115-66s115 11 115 66c0 24-5 34-15 34-9 0-15-9-15-24 0-56-76-61-87-6-5 29-8 30-59 30h-54z"/><path d="m202 23c6-32 108-29 108 2 0 11-13 15-56 15-47 0-55-3-52-17z"/></g></svg>